<?xml version="1.0" standalone="no"?>
<!DOCTYPE svg PUBLIC "-//W3C//DTD SVG 20010904//EN"
 "http://www.w3.org/TR/2001/REC-SVG-20010904/DTD/svg10.dtd">
<svg version="1.0" xmlns="http://www.w3.org/2000/svg"
 width="770.000000pt" height="770.000000pt" viewBox="0 0 770.000000 770.000000"
 preserveAspectRatio="xMidYMid meet">
<metadata>
Created by potrace 1.11, written by Peter Selinger 2001-2013
</metadata>
<g transform="translate(0.000000,770.000000) scale(0.100000,-0.100000)"
fill="#000000" stroke="none">
<path d="M3459 7686 c-4 -4 -56 -12 -149 -21 -19 -2 -46 -6 -60 -10 -14 -3
-38 -7 -55 -10 -36 -5 -77 -13 -125 -22 -35 -6 -43 -8 -57 -13 -5 -1 -12 -3
-18 -4 -8 -2 -32 -7 -97 -22 -5 -1 -9 -2 -10 -4 -2 -1 -10 -3 -18 -5 -81 -17
-353 -106 -453 -148 -20 -9 -39 -16 -42 -17 -27 -4 -368 -171 -373 -182 -2 -5
-8 -8 -13 -8 -4 0 -43 -20 -85 -45 -41 -25 -80 -45 -85 -45 -5 0 -9 -5 -9 -10
0 -6 -8 -14 -17 -17 -51 -19 -336 -226 -453 -329 -165 -145 -334 -316 -430
-433 -19 -24 -42 -51 -51 -61 -8 -11 -24 -31 -35 -45 -10 -15 -34 -43 -51 -64
-18 -20 -33 -41 -33 -48 0 -6 -4 -13 -9 -15 -10 -4 -156 -221 -193 -288 -14
-25 -39 -67 -55 -95 -16 -27 -46 -84 -67 -125 -41 -82 -47 -94 -64 -127 -7
-13 -12 -30 -12 -38 0 -8 -4 -15 -10 -15 -5 0 -10 -5 -10 -11 0 -6 -6 -25 -14
-42 -31 -68 -86 -215 -86 -229 0 -8 -4 -18 -9 -24 -7 -8 -31 -81 -86 -268 -10
-32 -19 -71 -20 -85 -1 -15 -7 -43 -14 -63 -6 -19 -13 -44 -15 -54 -7 -35 -19
-109 -21 -124 -2 -8 -5 -28 -8 -45 -8 -44 -27 -180 -35 -260 -16 -153 -7 -715
12 -835 3 -14 7 -47 10 -75 3 -27 8 -59 10 -70 2 -11 7 -38 11 -60 4 -22 9
-51 11 -64 5 -26 28 -125 50 -221 9 -36 24 -90 34 -120 9 -30 27 -86 39 -125
23 -74 71 -202 102 -272 11 -24 19 -46 19 -49 0 -9 168 -345 190 -379 21 -34
47 -79 64 -112 6 -13 14 -23 19 -23 4 0 7 -7 7 -15 0 -8 5 -15 10 -15 6 0 10
-5 10 -11 0 -9 55 -97 69 -109 3 -3 26 -34 51 -70 42 -61 60 -85 85 -114 6 -6
28 -34 50 -61 22 -28 44 -55 50 -61 5 -6 32 -37 59 -68 92 -105 275 -284 375
-366 30 -25 62 -52 71 -60 91 -82 516 -369 547 -370 4 0 19 -9 33 -20 14 -11
33 -20 42 -20 9 0 18 -4 20 -8 6 -15 322 -160 428 -197 3 -1 12 -5 20 -8 24
-10 256 -86 282 -92 13 -3 75 -19 138 -35 63 -17 131 -33 150 -36 36 -5 46 -7
135 -23 28 -5 73 -12 100 -16 28 -4 68 -10 90 -13 51 -8 850 -7 890 1 17 3 50
8 75 10 39 5 108 16 190 32 14 3 48 9 75 15 51 10 56 11 137 29 55 13 182 49
283 82 39 13 72 23 75 24 3 1 14 5 25 10 43 18 110 43 115 43 3 0 31 12 64 26
32 14 61 26 63 26 14 0 363 179 373 191 3 4 15 9 28 13 12 4 22 12 22 17 0 5
5 9 11 9 6 0 30 13 54 30 24 16 46 30 49 30 6 0 248 169 256 179 3 3 23 19 45
35 137 100 423 375 547 525 95 114 148 184 217 281 33 47 64 90 68 96 17 22
33 50 44 74 5 13 14 27 19 30 20 13 189 331 249 470 13 30 30 69 37 85 24 55
111 298 119 335 2 8 15 53 29 100 14 47 27 96 29 110 3 14 10 43 15 65 6 22
13 51 15 65 3 14 12 63 20 110 23 122 26 148 45 325 15 151 7 718 -12 815 -3
14 -8 52 -11 85 -3 33 -8 69 -10 80 -3 11 -7 34 -10 50 -27 149 -26 142 -55
255 -12 47 -23 92 -25 100 -15 69 -126 388 -165 475 -79 178 -191 390 -283
540 -64 103 -208 305 -219 305 -4 0 -8 4 -8 10 0 9 -19 35 -47 65 -7 8 -13 16
-13 19 0 3 -10 16 -22 29 -13 13 -52 56 -88 97 -117 133 -306 313 -435 415
-27 22 -53 45 -57 50 -4 6 -8 7 -8 3 0 -4 -12 4 -27 19 -16 14 -48 39 -73 56
-25 17 -46 34 -48 39 -2 4 -8 8 -14 8 -9 0 -30 15 -85 61 -7 5 -13 8 -13 5 0
-3 -33 16 -72 43 -81 53 -163 99 -253 144 -33 16 -67 35 -75 43 -8 7 -19 13
-25 14 -16 3 -44 15 -125 52 -157 72 -468 181 -580 203 -8 2 -15 4 -15 6 0 1
-9 3 -20 4 -11 2 -51 11 -90 20 -97 23 -246 50 -390 71 -54 8 -849 17 -856 10z"/>
</g>
</svg>
